<svg width="40" height="40" viewBox="0 0 40 40" fill="none" xmlns="http://www.w3.org/2000/svg">
<g clip-path="url(#clip0_136_6562)">
<path d="M0.392534 25.6352C-0.130845 25.1118 -0.130845 24.2632 0.392535 23.7398L6.55234 17.58C7.07572 17.0567 7.92428 17.0567 8.44766 17.58L14.6075 23.7398C15.1308 24.2632 15.1308 25.1118 14.6075 25.6352L8.44766 31.795C7.92428 32.3183 7.07572 32.3183 6.55234 31.795L0.392534 25.6352Z" fill="#1880E0" stroke="white"/>
<path d="M8.20503 8.44766C7.68166 7.92428 7.68166 7.07572 8.20503 6.55234L14.3648 0.392534C14.8882 -0.130845 15.7368 -0.130845 16.2602 0.392535L22.42 6.55234C22.9433 7.07572 22.9433 7.92428 22.42 8.44766L16.2602 14.6075C15.7368 15.1308 14.8882 15.1308 14.3648 14.6075L8.20503 8.44766Z" fill="#009048" stroke="white"/>
<path d="M25.3925 16.2602C24.8692 15.7368 24.8692 14.8882 25.3925 14.3648L31.5523 8.20503C32.0757 7.68166 32.9243 7.68166 33.4477 8.20503L39.6075 14.3648C40.1308 14.8882 40.1308 15.7368 39.6075 16.2602L33.4477 22.42C32.9243 22.9433 32.0757 22.9433 31.5523 22.42L25.3925 16.2602Z" fill="#E84000" stroke="white"/>
<path d="M17.58 33.4477C17.0567 32.9243 17.0567 32.0757 17.58 31.5523L23.7398 25.3925C24.2632 24.8692 25.1118 24.8692 25.6352 25.3925L31.795 31.5523C32.3183 32.0757 32.3183 32.9243 31.795 33.4477L25.6352 39.6075C25.1118 40.1308 24.2632 40.1308 23.7398 39.6075L17.58 33.4477Z" fill="#808080" stroke="white"/>
<path d="M25.3925 25.6352C24.8692 25.1118 24.8692 24.2632 25.3925 23.7398L31.5523 17.58C32.0757 17.0567 32.9243 17.0567 33.4477 17.58L39.6075 23.7398C40.1308 24.2632 40.1308 25.1118 39.6075 25.6352L33.4477 31.795C32.9243 32.3183 32.0757 32.3183 31.5523 31.795L25.3925 25.6352Z" fill="#808080" fill-opacity="0.5" stroke="white"/>
<path d="M17.58 8.44766C17.0567 7.92428 17.0567 7.07572 17.58 6.55234L23.7398 0.392534C24.2632 -0.130845 25.1118 -0.130845 25.6352 0.392535L31.795 6.55234C32.3183 7.07572 32.3183 7.92428 31.795 8.44766L25.6352 14.6075C25.1118 15.1308 24.2632 15.1308 23.7398 14.6075L17.58 8.44766Z" fill="#E84000" fill-opacity="0.5" stroke="white"/>
<path d="M0.392534 16.2602C-0.130845 15.7368 -0.130845 14.8882 0.392535 14.3648L6.55234 8.20503C7.07572 7.68166 7.92428 7.68166 8.44766 8.20503L14.6075 14.3648C15.1308 14.8882 15.1308 15.7368 14.6075 16.2602L8.44766 22.42C7.92428 22.9433 7.07572 22.9433 6.55234 22.42L0.392534 16.2602Z" fill="#009048" fill-opacity="0.5" stroke="white"/>
<path d="M8.20503 33.4477C7.68166 32.9243 7.68166 32.0757 8.20503 31.5523L14.3648 25.3925C14.8882 24.8692 15.7368 24.8692 16.2602 25.3925L22.42 31.5523C22.9433 32.0757 22.9433 32.9243 22.42 33.4477L16.2602 39.6075C15.7368 40.1308 14.8882 40.1308 14.3648 39.6075L8.20503 33.4477Z" fill="#1880E0" fill-opacity="0.5" stroke="white"/>
</g>
<defs>
<clipPath id="clip0_136_6562">
<rect width="40" height="40" fill="white"/>
</clipPath>
</defs>
</svg>
