<svg xmlns="http://www.w3.org/2000/svg" width="300" height="85.362" viewBox="0 0 300 85.362">
  <g id="Logo" transform="translate(-106.271 -102.907)">
    <path id="Path_24809_00000147212212814180003920000005584246232041419136_" d="M547.413,178.276l-14.155-24.757a.413.413,0,0,0-.383-.219h-5.684a.49.49,0,0,0-.492.492v29.4a.49.49,0,0,0,.492.492h3.115a.49.49,0,0,0,.492-.492V159.038a.463.463,0,0,1,.874-.219l13.882,24.7a.444.444,0,0,0,.437.219h5.738a.49.49,0,0,0,.492-.492v-29.4a.49.49,0,0,0-.492-.492h-2.9a.49.49,0,0,0-.492.492v24.265A.5.5,0,0,1,547.413,178.276Z" transform="translate(-190.657 -22.852)" fill="#35008b"/>
    <path id="Path_24811_00000180351454871118605020000007637582960197690037_" d="M446.6,157.791l9.947,25.522a.476.476,0,0,0,.437.328h2.678a.482.482,0,0,0,.437-.656l-11.258-29.457a.543.543,0,0,0-.437-.328h-4.7a.433.433,0,0,0-.437.273l-11.586,29.457a.482.482,0,0,0,.437.656H434.9a.433.433,0,0,0,.437-.273l10.384-25.522A.477.477,0,0,1,446.6,157.791Z" transform="translate(-147.553 -22.807)" fill="#35008b"/>
    <path id="Path_25617" data-name="Path 25617" d="M619.98,157.244a.49.49,0,0,1,.492-.492h16.5a.49.49,0,0,0,.492-.492v-2.569a.49.49,0,0,0-.492-.492H616.592a.49.49,0,0,0-.492.492l.055,29.4a.49.49,0,0,0,.492.492h20.33a.49.49,0,0,0,.492-.492v-2.623a.49.49,0,0,0-.492-.492h-16.56a.49.49,0,0,1-.492-.492Zm13.335,9.455h-9.291a.49.49,0,0,0-.492.492v2.459a.49.49,0,0,0,.492.492h9.291a.49.49,0,0,0,.492-.492v-2.459A.49.49,0,0,0,633.315,166.7Z" transform="translate(-231.198 -22.807)" fill="#35008b"/>
    <path id="Path_25618" data-name="Path 25618" d="M281.029,168.818a18.1,18.1,0,0,0-1.8-.82v-.055c.055-.055.109-.055.164-.109a7.693,7.693,0,0,0,.82-13.226,9.92,9.92,0,0,0-5.684-1.421H261.792a.49.49,0,0,0-.492.492v29.4a.49.49,0,0,0,.492.492h13.335a15.216,15.216,0,0,0,3.17-.328,7.526,7.526,0,0,0,6.394-7.1A7.172,7.172,0,0,0,281.029,168.818Zm-16.013-11.7a.49.49,0,0,1,.492-.492h8.8a6.908,6.908,0,0,1,2.951.547,4.54,4.54,0,0,1,2.733,4.427,4.664,4.664,0,0,1-3.06,4.536,7.831,7.831,0,0,1-2.241.492h-5.574a.49.49,0,0,0-.492.492v2.3a.49.49,0,0,0,.492.492h6.176A5.8,5.8,0,0,1,278.953,171a5.072,5.072,0,0,1,1.8,3.224,5.162,5.162,0,0,1-4.317,5.848,7.736,7.736,0,0,1-1.585.109h-9.4a.49.49,0,0,1-.492-.492Z" transform="translate(-70.303 -22.794)" fill="#35008b"/>
    <path id="Path_25619" data-name="Path 25619" d="M369.726,182.821l-6.394-10.548a.5.5,0,0,1,.273-.71,8.989,8.989,0,0,0,5.9-6.5,9.845,9.845,0,0,0-2.678-9.345A10.064,10.064,0,0,0,360,153.2H347.592a.49.49,0,0,0-.492.492v29.4a.49.49,0,0,0,.492.492h2.842a.49.49,0,0,0,.492-.492v-25.9a.49.49,0,0,1,.492-.492h9.018a5.742,5.742,0,0,1,5.411,4.044,6.225,6.225,0,0,1-3.935,7.815s-1.8.656-6.886.492a.49.49,0,0,0-.492.492v2.241a.525.525,0,0,0,.437.492c1.312.055,2.569.055,3.88,0a.5.5,0,0,1,.437.219l6.34,10.439a1.141,1.141,0,0,0,1.148.656c.82-.055,1.694,0,2.569,0A.539.539,0,0,0,369.726,182.821Z" transform="translate(-109.212 -22.807)" fill="#35008b"/>
    <g id="Group_118130" data-name="Group 118130" transform="translate(106.271 102.907)">
      <path id="Path_25620" data-name="Path 25620" d="M138.679,185.8c-3.006,0-6.012-2.35-8.088-4.372a41.8,41.8,0,0,1-7.323-10.111c-.109-.273-.273-.547-.383-.82a59.121,59.121,0,0,1-2.4-5.684,56.689,56.689,0,0,1-1.694-5.411,48.211,48.211,0,0,1-1.093-4.864c-.273-1.366-.492-2.733-.656-4.044q-.164-1.558-.328-2.951c-.055-.656-.055-1.257-.109-1.8h0v-1.093a26.541,26.541,0,0,1,.383-4.536,8.746,8.746,0,0,1,1.038-3.061,4.964,4.964,0,0,1,1.585-1.749,4.387,4.387,0,0,1,2.077-.6,10.47,10.47,0,0,1,2.4.328,20.36,20.36,0,0,1,2.623.984c1.038.492,2.077.984,2.842,1.421l2.131,1.148.82.437c.929.492,1.967,1.093,3.006,1.585,1.148.547,2.077.984,3.006,1.366a19.482,19.482,0,0,0,2.9.929c2.022.437,3.88.765,5.465.984,6.285,1.038,9.728,1.585,8.908,8.307-.492,4.1-2.186,7.214-4.154,10.821a63.36,63.36,0,0,0-6.285,15.139c-1.257,4.7-3.388,7.269-6.285,7.6C139.062,185.8,138.843,185.8,138.679,185.8ZM117.31,145.685c0,.547.055,1.148.109,1.749q.082,1.394.328,2.951c.164,1.312.383,2.678.656,4.044.328,1.64.656,3.224,1.093,4.809a51.147,51.147,0,0,0,1.694,5.356,58.077,58.077,0,0,0,2.4,5.629c.109.273.273.547.383.765,3.716,7.214,10.329,14.592,15.3,14.1,2.569-.273,4.481-2.623,5.684-7.05a64.813,64.813,0,0,1,6.34-15.3c1.967-3.716,3.552-6.613,4.044-10.548.765-6.066-2.077-6.558-8.307-7.542-1.64-.273-3.5-.547-5.52-1.038a20.54,20.54,0,0,1-3.006-.929c-.929-.383-1.913-.82-3.06-1.366-1.038-.547-2.077-1.093-3.061-1.585l-.82-.437-2.131-1.148c-.765-.383-1.749-.929-2.787-1.366a13.561,13.561,0,0,0-2.569-.929,8.489,8.489,0,0,0-2.186-.328,3.121,3.121,0,0,0-1.749.492,3.776,3.776,0,0,0-1.366,1.53,8.67,8.67,0,0,0-.929,2.842,25.187,25.187,0,0,0-.383,4.427.966.966,0,0,0-.164.874Z" transform="translate(-110.955 -117.325)" fill="#35008b"/>
      <path id="Path_25621" data-name="Path 25621" d="M134.761,186.452h-.383c-3.826-.219-7.214-3.826-9.345-6.777a48.942,48.942,0,0,1-6.558-13.335,78.865,78.865,0,0,1-2.787-31.37h0c1.093-6.831,2.9-10.548,5.629-11.641,3.771-1.476,8.526,2.3,13.554,6.285,3.5,2.733,7.1,5.574,10.6,7,2.3.929,4.372,1.64,6.23,2.241,6.941,2.35,11.149,3.771,8.854,11.532-1.421,4.7-3.99,8.034-7,11.859a75.028,75.028,0,0,0-10.329,16.5C140.936,183.828,138.094,186.452,134.761,186.452Zm-18.2-51.373a76.119,76.119,0,0,0,2.733,30.933c2.9,9.182,9.182,19.128,15.139,19.456,3.06.219,5.738-2.241,7.979-7.159A76.528,76.528,0,0,1,152.85,161.64c3.061-3.935,5.465-7.05,6.831-11.586,2.077-6.941-1.148-8.034-8.252-10.438-1.858-.656-3.99-1.366-6.285-2.3-3.662-1.476-7.323-4.372-10.821-7.159-4.809-3.826-9.4-7.433-12.625-6.121C119.239,125.078,117.6,128.685,116.562,135.079Z" transform="translate(-110.315 -112.02)" fill="#35008b"/>
      <path id="Path_25622" data-name="Path 25622" d="M129.839,187.139a8.971,8.971,0,0,1-1.257-.109c-3.5-.6-6.941-3.771-9.947-9.072a56.8,56.8,0,0,1-5.848-16.177c-3.716-18.855.82-36.18.874-36.4h0c2.131-7.761,4.7-11.8,8.088-12.734,4.591-1.2,9.564,3.716,14.865,8.963,3.607,3.607,7.378,7.269,11.2,9.345,2.514,1.366,4.809,2.459,6.831,3.388,7.761,3.662,12.406,5.848,8.69,14.592-2.241,5.247-5.629,8.744-9.564,12.734a87.064,87.064,0,0,0-13.936,17.543C136.725,184.515,133.391,187.139,129.839,187.139Zm-14.865-61.374c-.055.219-4.536,17.27-.874,35.742a53.215,53.215,0,0,0,5.684,15.74c1.967,3.443,5.137,7.706,9.018,8.416,3.388.6,6.722-1.8,9.892-7.05a87.639,87.639,0,0,1,14.155-17.762c3.99-4.1,7.159-7.323,9.291-12.351,3.17-7.542-.109-9.072-8.034-12.789-2.077-.984-4.372-2.077-6.886-3.443-4.044-2.186-7.815-5.957-11.532-9.619-5.028-4.973-9.728-9.619-13.554-8.635C119.291,114.78,116.941,118.605,114.973,125.765Z" transform="translate(-108.563 -107.242)" fill="#35008b"/>
      <path id="Path_25623" data-name="Path 25623" d="M124.65,188.269a9.5,9.5,0,0,1-2.131-.273c-3.935-1.038-7.542-4.919-10.548-11.258a63.414,63.414,0,0,1-5.137-18.855c-2.514-21.7,4.208-40.934,4.317-41.153h0c3.17-8.635,6.449-13.007,10.439-13.718,5.356-.984,10.6,5.083,16.177,11.532,3.771,4.372,7.651,8.908,11.8,11.586,2.678,1.749,5.192,3.17,7.433,4.427,8.526,4.864,13.663,7.761,8.58,17.489-3.006,5.738-7.159,9.4-12.023,13.608a99.071,99.071,0,0,0-17.325,18.527C132.41,185.592,128.53,188.269,124.65,188.269ZM112.9,117.386c-.109.273-6.668,19.073-4.208,40.278a62.22,62.22,0,0,0,4.973,18.254c2.733,5.848,5.957,9.4,9.345,10.22,3.716.984,7.651-1.421,11.7-7.05a100.934,100.934,0,0,1,17.653-18.855c4.864-4.263,8.744-7.651,11.586-13.062,4.208-8.143.71-10.111-7.87-15.029-2.241-1.257-4.755-2.733-7.542-4.481-4.372-2.842-8.362-7.433-12.187-11.914-5.192-6.012-10.111-11.75-14.428-10.93C118.693,105.417,115.742,109.516,112.9,117.386Z" transform="translate(-106.271 -102.907)" fill="#35008b"/>
    </g>
  </g>
</svg>
